<?xml version="1.0" standalone="no"?>
<!DOCTYPE svg PUBLIC "-//W3C//DTD SVG 20010904//EN"
 "http://www.w3.org/TR/2001/REC-SVG-20010904/DTD/svg10.dtd">
<svg version="1.0" xmlns="http://www.w3.org/2000/svg"
 width="700.000000pt" height="700.000000pt" viewBox="0 0 700.000000 700.000000"
 preserveAspectRatio="xMidYMid meet">
<metadata>
Created by potrace 1.14, written by Peter Selinger 2001-2017
</metadata>
<g transform="translate(0.000000,700.000000) scale(0.100000,-0.100000)"
fill="#000000" stroke="none">
<path d="M3335 6994 c-782 -48 -1465 -311 -2054 -791 -136 -111 -373 -348
-484 -484 -379 -465 -633 -1012 -736 -1585 -41 -227 -54 -380 -54 -634 0 -254
13 -407 54 -634 192 -1066 894 -2002 1869 -2489 393 -197 766 -305 1230 -358
157 -18 557 -15 725 5 433 53 818 166 1181 349 916 460 1585 1299 1829 2292
70 286 98 522 98 835 0 549 -108 1027 -344 1518 -172 359 -387 661 -678 953
-571 570 -1276 910 -2081 1003 -128 15 -448 26 -555 20z m1381 -1134 c438
-112 715 -548 630 -993 -53 -273 -244 -510 -506 -624 l-75 -33 3 -152 c8 -463
119 -887 302 -1161 28 -42 87 -112 130 -155 44 -44 84 -92 90 -106 14 -39 12
-91 -5 -133 -21 -50 -42 -72 -90 -94 -38 -18 -110 -19 -1693 -19 -1777 0
-1690 -2 -1745 48 -31 28 -57 88 -57 133 0 59 22 98 95 166 271 257 421 721
441 1362 3 108 12 239 20 291 17 107 67 267 115 362 141 283 403 517 697 623
147 53 237 68 407 69 88 1 185 -2 216 -6 l56 -8 38 61 c125 203 352 350 600
389 85 13 237 4 331 -20z m-1446 -3845 c15 -8 50 -40 76 -70 58 -69 88 -85
154 -85 66 0 96 16 154 85 59 68 90 85 157 85 140 0 221 -138 157 -269 -12
-25 -52 -75 -88 -111 -212 -211 -548 -211 -760 0 -36 36 -76 86 -88 111 -63
131 17 269 156 269 29 0 66 -7 82 -15z"/>
</g>
</svg>
